<svg width="26" height="26" viewBox="0 0 26 26" fill="none" xmlns="http://www.w3.org/2000/svg">
<path d="M13.9223 25.9341C13.4286 25.9352 12.9395 25.8385 12.4833 25.6498C12.0271 25.461 11.6128 25.1838 11.2642 24.8342L9.31982 22.9057C10.0832 22.7133 10.7888 22.3393 11.3766 21.8156L12.8285 23.2577C13.1193 23.5483 13.5136 23.7115 13.9247 23.7115C14.3358 23.7115 14.7301 23.5483 15.0209 23.2577L15.2935 22.9827C15.5814 22.6912 15.7418 22.2974 15.7395 21.8877C15.7388 21.6175 15.6676 21.3521 15.533 21.1178L15.5061 21.0713L15.4658 21.0359C15.3863 20.9687 15.3081 20.9003 15.2336 20.8257L13.7548 19.336L15.3619 17.7326L16.8529 19.2137C16.9274 19.2871 16.9959 19.3665 17.0631 19.4447L17.0973 19.4851L17.1437 19.5119C17.2326 19.5621 17.3264 19.6031 17.4236 19.6342C17.5813 19.6866 17.7463 19.7138 17.9124 19.7148C18.1152 19.715 18.3159 19.6752 18.5032 19.5976C18.6905 19.52 18.8606 19.4062 19.0038 19.2626L19.2787 18.9913C19.5699 18.7015 19.7343 18.308 19.7356 17.8972C19.737 17.4864 19.5753 17.0918 19.2861 16.8001L13.7658 11.242L15.3375 9.67035L20.8626 15.2334C21.2118 15.5846 21.4883 16.0012 21.6765 16.4594C21.8646 16.9175 21.9606 17.4083 21.959 17.9035C21.9574 18.3988 21.8583 18.8889 21.6672 19.3459C21.4761 19.8028 21.1969 20.2176 20.8455 20.5666L20.5693 20.8404C19.9408 21.4643 19.1126 21.8468 18.2302 21.9207L17.9699 21.9427L17.9491 22.203C17.8744 23.0855 17.4915 23.9136 16.8675 24.5421L16.595 24.8208C16.2457 25.1753 15.8292 25.4567 15.3699 25.6483C14.9105 25.8399 14.4175 25.9379 13.9198 25.9365L13.9223 25.9341Z" fill="white"/>
<path d="M5.20452 10.725C4.5007 10.0141 4.10772 9.05294 4.11185 8.05258C4.11597 7.05221 4.51686 6.09436 5.22652 5.38928L5.50149 5.11675C6.13642 4.48684 6.97455 4.10307 7.86626 4.03396L8.13023 4.01319L8.14978 3.75044C8.21892 2.85838 8.60267 2.01987 9.23257 1.38444L9.50388 1.11192C10.2092 0.402928 11.1672 0.00299587 12.1672 1.67628e-05C13.1673 -0.00296234 14.1276 0.391255 14.8371 1.09603L16.6886 2.92918C15.9195 3.11415 15.2066 3.48274 14.611 4.00341L13.2667 2.66888C12.9748 2.37954 12.58 2.21783 12.169 2.2192C11.758 2.22058 11.3643 2.38493 11.0743 2.67621L10.8017 2.95118C10.5383 3.21849 10.3808 3.57225 10.3583 3.94687C10.3358 4.32149 10.45 4.69154 10.6795 4.98842L10.6954 5.00798L10.77 5.07642C10.792 5.09475 10.8127 5.11308 10.8335 5.13385L12.2072 6.51727L10.6539 8.0779V8.06935L10.6294 8.09379L9.25212 6.72626C9.23135 6.7067 9.21302 6.68348 9.19347 6.66148L9.12624 6.58694L9.10547 6.57105C8.8344 6.36165 8.50209 6.24702 8.15956 6.24475C7.957 6.24412 7.75631 6.28353 7.56902 6.36071C7.38173 6.43789 7.21154 6.55132 7.06823 6.69448L6.79325 6.96701C6.50205 7.25679 6.33773 7.65029 6.33635 8.06111C6.33498 8.47193 6.49666 8.86651 6.78592 9.15824L12.2096 14.6186L10.638 16.189L5.20452 10.725Z" fill="white"/>
<path d="M22.9864 16.5972C22.7831 15.841 22.4023 15.1442 21.8755 14.5648L23.2797 13.1606C23.5699 12.8699 23.7329 12.4758 23.7329 12.065C23.7329 11.6542 23.5699 11.2602 23.2797 10.9694L23.0059 10.6957C22.7161 10.4073 22.3243 10.2448 21.9155 10.2434C21.5066 10.242 21.1138 10.4019 20.822 10.6883L19.3555 12.1548L17.7839 10.582L19.2504 9.11548C19.5388 8.82399 19.7005 8.43051 19.7005 8.02048C19.7005 7.61045 19.5388 7.21696 19.2504 6.92547L18.9767 6.65172C18.6859 6.36149 18.2919 6.19848 17.881 6.19848C17.4702 6.19848 17.0762 6.36149 16.7854 6.65172L11.2982 12.139L9.72656 10.5673L15.2138 5.08009C15.5639 4.72979 15.9796 4.45191 16.4372 4.26231C16.8947 4.07272 17.3852 3.97513 17.8804 3.97513C18.3757 3.97513 18.8661 4.07272 19.3237 4.26231C19.7812 4.45191 20.1969 4.72979 20.5471 5.08009L20.822 5.35507C21.46 5.99358 21.847 6.84034 21.9121 7.74061L21.9317 8.00581L22.1969 8.02536C23.0968 8.09184 23.9432 8.47858 24.5824 9.11548L24.8574 9.39045C25.5634 10.0983 25.9599 11.0573 25.9599 12.0571C25.9599 13.0568 25.5634 14.0158 24.8574 14.7237L22.9864 16.5972Z" fill="white"/>
<path d="M8.08561 21.867C7.59047 21.8692 7.0998 21.7731 6.64206 21.5843C6.18431 21.3955 5.76859 21.1178 5.41898 20.7671L5.14401 20.4934C4.5065 19.8534 4.11933 19.0062 4.05268 18.1054L4.03312 17.8402L3.76792 17.8194C2.86704 17.7538 2.01965 17.367 1.37994 16.7293L1.10496 16.4543C0.75466 16.1042 0.47677 15.6885 0.287176 15.2309C0.0975822 14.7734 0 14.283 0 13.7877C0 13.2924 0.0975822 12.802 0.287176 12.3445C0.47677 11.8869 0.75466 11.4712 1.10496 11.1211L3.03955 9.17793C3.21376 9.9512 3.57412 10.6702 4.08934 11.2726L2.67659 12.6854C2.5314 12.8291 2.41656 13.0005 2.33888 13.1894C2.26121 13.3784 2.22228 13.581 2.22441 13.7853C2.22353 13.9895 2.26315 14.1918 2.34098 14.3806C2.4188 14.5694 2.53329 14.7409 2.67781 14.8851L2.95156 15.1577C3.09535 15.3015 3.26606 15.4156 3.45394 15.4934C3.64182 15.5712 3.8432 15.6113 4.04657 15.6113C4.24993 15.6113 4.4513 15.5712 4.63919 15.4934C4.82707 15.4156 4.99778 15.3015 5.14157 15.1577L6.60809 13.6912L8.18216 15.2652L6.71563 16.7317C6.4257 17.0227 6.26291 17.4166 6.26291 17.8274C6.26291 18.2381 6.4257 18.6321 6.71563 18.923L6.98938 19.1967C7.28014 19.4869 7.67418 19.65 8.085 19.65C8.49582 19.65 8.88986 19.4869 9.18062 19.1967L14.6679 13.7107L16.2383 15.2823L10.7522 20.7683C10.4024 21.1185 9.98657 21.3959 9.52887 21.5845C9.07117 21.7731 8.58064 21.8691 8.08561 21.867Z" fill="white"/>
</svg>
