<svg width="20" height="20" viewBox="0 0 20 20" fill="none" xmlns="http://www.w3.org/2000/svg">
<path fill-rule="evenodd" clip-rule="evenodd" d="M2.92994 8.08511H14.3997C14.5432 8.08511 14.6748 8.14491 14.7824 8.25255L16.6004 10.1183C16.9353 10.4652 16.6961 11.0512 16.2177 11.0512H4.74788C4.60436 11.0512 4.4728 10.9914 4.36516 10.8838L2.54722 9.018C2.21234 8.67116 2.45154 8.08511 2.92994 8.08511ZM2.54722 5.60936L4.36516 3.74358C4.46084 3.63594 4.60436 3.57614 4.74788 3.57614H16.2057C16.6841 3.57614 16.9233 4.16219 16.5884 4.50903L14.7824 6.37481C14.6868 6.48245 14.5432 6.54225 14.3997 6.54225H2.92994C2.45154 6.54225 2.21234 5.95621 2.54722 5.60936ZM16.5884 13.515L14.7705 15.3808C14.6628 15.4884 14.5313 15.5482 14.3878 15.5482H2.92994C2.45154 15.5482 2.21234 14.9622 2.54722 14.6153L4.36516 12.7496C4.46084 12.6419 4.60436 12.5821 4.74788 12.5821H16.2057C16.6841 12.5821 16.9233 13.1682 16.5884 13.515Z" fill="#DADADA"/>
</svg>
